<?xml version="1.0" encoding="UTF-8"?>
<svg id="Ebene_4" xmlns="http://www.w3.org/2000/svg" version="1.1" viewBox="0 0 400 400">
  <!-- Generator: Adobe Illustrator 29.2.1, SVG Export Plug-In . SVG Version: 2.1.0 Build 116)  -->
  <defs>
    <style>
      .st0 {
        opacity: .7;
      }

      .st0, .st1 {
        fill: #fff;
      }
    </style>
  </defs>
  <path class="st0" d="M378.7,350.4l-63.6-63.6c-5.9-5.9-15.4-5.9-21.2,0-5.9,5.9-5.9,15.4,0,21.2l63.6,63.6c5.9,5.9,15.4,5.9,21.2,0s5.9-15.4,0-21.2Z"/>
  <path class="st0" d="M308,293.8c-2-2-5.1-2-7.1,0-2,2-2,5.1,0,7.1l63.6,63.6c2,2,5.1,2,7.1,0,2-2,2-5.1,0-7.1l-63.6-63.6Z"/>
  <g>
    <path class="st1" d="M225.2,341.6c-38.1,6.7-76.6-1.8-108.3-24-31.7-22.2-52.9-55.5-59.6-93.6-13.9-78.7,38.9-154.1,117.6-168,38.1-6.7,76.6,1.8,108.3,24,31.7,22.2,52.9,55.5,59.6,93.6,6.7,38-2.2,77.4-24.4,108.9l7.2,7.2c24.5-33.9,34.4-76.6,27.1-117.8-7.2-40.8-29.8-76.3-63.7-100.1-33.9-23.7-75-32.9-115.8-25.7-84.2,14.8-140.6,95.4-125.7,179.6,7.2,40.8,29.8,76.3,63.7,100.1,26.4,18.5,57.1,28.1,88.6,28.1,9,0,18.2-.8,27.2-2.4,26.6-4.7,51.3-16.2,72-33.3l-7.1-7.1c-19.1,15.7-42.1,26.2-66.6,30.5Z"/>
    <path class="st0" d="M199.8,321.4c-24.9,0-49.2-7.6-70-22.2-26.8-18.8-44.7-46.9-50.4-79.1-11.7-66.5,32.8-130.2,99.4-141.9,32.2-5.7,64.7,1.5,91.5,20.3,26.8,18.8,44.7,46.9,50.4,79.1,5.7,32.2-1.5,64.7-20.3,91.5-18.8,26.8-46.9,44.7-79.1,50.4-7.2,1.3-14.4,1.9-21.5,1.9ZM200.3,81.3c-6.9,0-13.8.6-20.7,1.8-63.8,11.3-106.6,72.3-95.3,136.1,5.5,30.9,22.6,57.8,48.3,75.8,25.7,18,56.9,24.9,87.8,19.5,30.9-5.5,57.8-22.6,75.8-48.3,18-25.7,24.9-56.9,19.5-87.8-5.5-30.9-22.6-57.8-48.3-75.8-20-14-43.3-21.3-67.1-21.3Z"/>
    <circle class="st1" cx="187.9" cy="129.9" r="18"/>
    <circle class="st1" cx="269" cy="186.7" r="18"/>
    <circle class="st1" cx="212.2" cy="267.8" r="18"/>
    <circle class="st1" cx="131.1" cy="211" r="18"/>
    <circle class="st1" cx="194" cy="164.4" r="8"/>
    <circle class="st1" cx="234.5" cy="192.8" r="8"/>
    <circle class="st1" cx="206.1" cy="233.3" r="8"/>
    <circle class="st1" cx="165.6" cy="204.9" r="8"/>
    <path class="st0" d="M378.7,349.2l-63.6-63.6c-5.9-5.9-15.4-5.9-21.2,0-5.9,5.9-5.9,15.4,0,21.2l63.6,63.6c5.9,5.9,15.4,5.9,21.2,0s5.9-15.4,0-21.2Z"/>
    <path class="st0" d="M308,292.6c-2-2-5.1-2-7.1,0-2,2-2,5.1,0,7.1l63.6,63.6c2,2,5.1,2,7.1,0,2-2,2-5.1,0-7.1l-63.6-63.6Z"/>
  </g>
</svg>